<svg width="24" height="24" viewBox="0 0 24 24" fill="none" xmlns="http://www.w3.org/2000/svg">
    <path fill-rule="evenodd" clip-rule="evenodd"
          d="M18.3 11.97C17.96 12.59 17.3 13 16.55 13H9.1L8 15H20V17H8C6.48 17 5.52 15.37 6.25 14.03L7.6 11.59L4 4H2V2H5.27L6.21 4H21.01C21.77 4 22.25 4.82 21.88 5.48L18.3 11.97ZM19.15 6H7L9.37 11H16.39L19.15 6ZM7.99 18C6.89 18 6 18.9 6 20C6 21.1 6.89 22 7.99 22C9.09 22 9.99 21.1 9.99 20C9.99 18.9 9.09 18 7.99 18ZM16 20C16 18.9 16.89 18 17.99 18C19.09 18 19.99 18.9 19.99 20C19.99 21.1 19.09 22 17.99 22C16.89 22 16 21.1 16 20Z"/>
</svg>
