<svg width="99" height="38" viewBox="0 0 99 38" fill="none" xmlns="http://www.w3.org/2000/svg">
    <path d="M2.31761 18.6674C3.24293 18.6674 3.86303 18.444 4.1779 17.9972C4.48956 17.5505 4.66948 16.8917 4.71768 16.021L5.41167 0.230713H26.6412V23.8966H20.376V5.88059H11.2576L10.8094 16.7254C10.7387 17.9744 10.5701 19.0701 10.3034 20.0126C10.0367 20.9518 9.61903 21.7394 9.05034 22.3753C8.48165 23.0112 7.73946 23.4955 6.82377 23.8281C5.90486 24.1575 4.7739 24.3222 3.43089 24.3222C2.89433 24.3222 2.35937 24.2977 1.82602 24.2488C1.29267 24.2031 0.817158 24.1086 0.399475 23.9651V18.5647C0.679002 18.6103 1.00512 18.6397 1.37782 18.6527C1.74731 18.6625 2.06057 18.6674 2.31761 18.6674ZM52.2565 6.23279V23.8966H46.69V13.0175L36.9114 23.8966H31.3402V6.23279H36.9114V17.1119L46.69 6.23279H52.2565ZM63.5339 24.601C62.2102 24.601 60.9523 24.5195 59.7603 24.3564C58.5651 24.1901 57.3988 23.9667 56.2614 23.6862V18.4571C56.9329 18.6462 57.5707 18.8044 58.1747 18.9316C58.7788 19.062 59.3876 19.168 60.0013 19.2495C60.615 19.3343 61.2415 19.3995 61.8809 19.4452C62.5202 19.4941 63.211 19.5185 63.9532 19.5185C64.9492 19.5185 65.7316 19.4827 66.3003 19.4109C66.869 19.3392 67.2979 19.2511 67.5871 19.1468C67.8794 19.0392 68.0594 18.9152 68.1268 18.775C68.1975 18.6348 68.2329 18.4815 68.2329 18.3152C68.2329 18.1489 68.2104 17.9956 68.1654 17.8554C68.1172 17.7152 67.9598 17.5912 67.6931 17.4836C67.4264 17.3793 66.9975 17.2912 66.4063 17.2195C65.8151 17.1477 64.9846 17.1119 63.9146 17.1119H60.0206V13.3012H63.9146C64.8432 13.3012 65.5629 13.2654 66.0738 13.1936C66.5846 13.1219 66.9621 13.0159 67.2063 12.8757C67.4505 12.7354 67.5903 12.5756 67.6256 12.3963C67.6577 12.2202 67.6738 12.0261 67.6738 11.8142C67.6738 11.6511 67.6401 11.493 67.5726 11.3397C67.5019 11.1864 67.3397 11.056 67.0858 10.9484C66.8288 10.844 66.44 10.7625 65.9195 10.7038C65.3958 10.6451 64.6825 10.6157 63.7797 10.6157C62.411 10.6157 61.1981 10.6972 60.141 10.8603C59.084 11.0266 57.9884 11.25 56.8542 11.5305V6.44802C57.8727 6.16431 58.9458 5.93929 60.0736 5.77297C61.1981 5.60991 62.3162 5.52839 63.4279 5.52839H64.093C65.9019 5.52839 67.3975 5.64579 68.5798 5.88059C69.7622 6.11539 70.7084 6.43987 71.4185 6.85403C72.1253 7.26493 72.6185 7.74757 72.898 8.30196C73.1744 8.85309 73.3125 9.4352 73.3125 10.0483V10.6157C73.3125 11.6267 72.9944 12.5153 72.3583 13.2817C71.7189 14.048 70.5526 14.6301 68.8594 15.028C69.8104 15.2171 70.6104 15.4536 71.2595 15.7373C71.9085 16.021 72.4258 16.339 72.8113 16.6912C73.1936 17.0434 73.4651 17.4314 73.6258 17.8554C73.7896 18.2793 73.8716 18.7147 73.8716 19.1615V19.7289C73.8716 20.4105 73.7206 21.0464 73.4185 21.6366C73.1165 22.2236 72.5944 22.7356 71.8522 23.1726C71.11 23.6096 70.1124 23.9569 68.8594 24.2145C67.6063 24.4722 66.0175 24.601 64.093 24.601H63.5339ZM99 23.8966H97.6072L95.7277 22.8009C94.5453 23.4139 93.3147 23.8672 92.036 24.1607C90.7604 24.4542 89.3226 24.601 87.7226 24.601C85.843 24.601 84.2831 24.4428 83.0429 24.1265C81.7995 23.8069 80.8067 23.3715 80.0645 22.8204C79.3223 22.266 78.8002 21.6301 78.4982 20.9127C78.1962 20.1952 78.0452 19.4468 78.0452 18.6674V18.3152C78.0452 17.5847 78.2026 16.8901 78.5175 16.2313C78.8292 15.5726 79.3625 14.9954 80.1176 14.4997C80.8726 14.004 81.859 13.6159 83.0767 13.3355C84.2944 13.0518 85.8077 12.9099 87.6166 12.9099C89.8913 12.9099 91.8288 13.1333 93.4288 13.5801C93.4063 13.1105 93.3437 12.693 93.2408 12.3278C93.1348 11.9626 92.9083 11.656 92.5613 11.4082C92.2111 11.1603 91.6938 10.9728 91.0094 10.8456C90.3251 10.7152 89.4158 10.65 88.2816 10.65C87.6551 10.65 86.982 10.6728 86.2623 10.7184C85.5426 10.7674 84.8165 10.8326 84.0839 10.9141C83.3546 10.9956 82.6365 11.1081 81.9296 11.2516C81.2196 11.3919 80.5641 11.5451 79.9633 11.7114V6.40889C80.5641 6.26866 81.2196 6.14637 81.9296 6.04201C82.6365 5.9344 83.3674 5.83982 84.1225 5.7583C84.8743 5.67677 85.6165 5.61807 86.3491 5.58219C87.0784 5.54632 87.7804 5.52839 88.4551 5.52839C90.4022 5.52839 92.0424 5.6996 93.3758 6.04201C94.7124 6.38117 95.7983 6.87523 96.6337 7.52419C97.4691 8.16989 98.0715 8.97701 98.441 9.94556C98.8137 10.9108 99 12.0294 99 13.3012V23.8966ZM88.3154 20.1887C90.1468 20.1887 91.8512 19.9409 93.4288 19.4452V17.7869C92.6416 17.5749 91.8063 17.4151 90.9227 17.3075C90.0424 17.2032 89.0576 17.151 87.9684 17.151C86.9242 17.151 86.1113 17.1983 85.5298 17.2928C84.9482 17.3842 84.5193 17.5064 84.243 17.6597C83.9634 17.813 83.7883 17.9842 83.7177 18.1733C83.6502 18.3625 83.6164 18.5386 83.6164 18.7016C83.6164 18.9136 83.6502 19.1093 83.7177 19.2886C83.7883 19.4647 83.9811 19.6229 84.296 19.7631C84.6076 19.9034 85.0767 20.0093 85.7033 20.0811C86.3298 20.1528 87.2005 20.1887 88.3154 20.1887Z" fill="#BDCFDB"/>
    <path d="M13.848 30.2411V30.6324C13.848 32.2695 13.6697 33.574 13.313 34.5458C12.9596 35.5176 12.4632 36.0035 11.8238 36.0035C11.6246 36.0035 11.4367 35.9725 11.2599 35.9105L11.4142 35.2208C11.4816 35.2502 11.5491 35.2648 11.6166 35.2648C12.0825 35.2648 12.4295 34.8344 12.6576 33.9734C12.8857 33.1125 12.9998 31.888 12.9998 30.2998V29.4927H16.4794V35.9301H15.636V30.2411H13.848ZM18.9277 35.9301H18.0939V31.0482H18.8361V34.9029L21.1928 31.0482H21.9928V35.9301H21.2458V32.1586L18.9277 35.9301ZM23.8868 33.0538H24.8941C25.2507 33.0538 25.5126 33.0033 25.6797 32.9022C25.8467 32.8011 25.9303 32.6348 25.9303 32.4032C25.9303 31.8717 25.5431 31.6059 24.7688 31.6059C24.5053 31.6059 24.2949 31.6581 24.1374 31.7624C23.9768 31.8668 23.837 32.0135 23.7182 32.2027L23.0724 31.8015C23.4097 31.208 23.972 30.9113 24.7592 30.9113C25.405 30.9113 25.8901 31.0433 26.2146 31.3075C26.5391 31.5716 26.7014 31.9271 26.7014 32.3739C26.7014 32.6674 26.6275 32.9054 26.4797 33.0881C26.3287 33.2739 26.152 33.3995 25.9496 33.4647C26.1391 33.5332 26.311 33.662 26.4652 33.8512C26.6162 34.0436 26.6917 34.3044 26.6917 34.6338C26.6917 35.5926 26.0379 36.072 24.7302 36.072C24.2611 36.072 23.8933 35.9888 23.6266 35.8225C23.3599 35.6529 23.1527 35.4377 23.0049 35.1768L23.6555 34.7757C23.7969 34.9811 23.9495 35.1328 24.1134 35.2306C24.274 35.3284 24.4828 35.3773 24.7399 35.3773C25.0869 35.3773 25.3712 35.3089 25.5929 35.1719C25.8146 35.0349 25.9255 34.8278 25.9255 34.5507C25.9255 33.9897 25.5961 33.7093 24.9375 33.7093H23.8868V33.0538ZM28.7882 35.9301H27.9544V31.0482H28.6966V34.9029L31.0533 31.0482H31.8485V35.9301H31.1063V32.1586L28.7882 35.9301ZM37.2848 35.9301H36.5137V33.7386H34.1763V35.9301H33.41V31.0482H34.1763V33.0929H36.5137V31.0482H37.2848V35.9301ZM38.8415 31.0482H42.0223V31.7086H39.6415V35.9301H38.8415V31.0482ZM44.8706 35.9301L47.0393 29.4927H48.1382L50.3069 35.9301H49.4153L48.8611 34.2572H46.2779L45.7381 35.9301H44.8706ZM46.5333 33.4745H48.596L47.5647 30.3389L46.5333 33.4745ZM51.319 31.0482H54.4998V31.7086H52.119V35.9301H51.319V31.0482ZM59.4253 33.4549C59.4253 34.2539 59.2534 34.8898 58.9096 35.3627C58.5658 35.8355 58.0919 36.072 57.4879 36.072C57.0091 36.072 56.5625 35.891 56.1481 35.529V37.7694H55.3577V31.0482H56.1481V31.5374C56.328 31.3613 56.5449 31.2129 56.7987 31.0923C57.0525 30.9716 57.324 30.9113 57.6132 30.9113C58.1851 30.9113 58.6301 31.1298 58.9481 31.5667C59.2662 32.007 59.4253 32.6364 59.4253 33.4549ZM58.606 33.4745C58.606 32.2385 58.2252 31.6206 57.4638 31.6206C57.2131 31.6206 56.9722 31.6841 56.7408 31.8113C56.5127 31.9385 56.3151 32.0853 56.1481 32.2516V34.8344C56.5561 35.1833 56.9674 35.3578 57.3818 35.3578C57.7417 35.3578 58.0357 35.2061 58.2638 34.9029C58.4919 34.5996 58.606 34.1235 58.606 33.4745ZM61.3097 33.587C61.3097 34.2294 61.4189 34.6893 61.6374 34.9664C61.8526 35.2404 62.2013 35.3773 62.6832 35.3773C62.8952 35.3773 63.0832 35.3317 63.2471 35.2404C63.4077 35.1491 63.5635 35.0007 63.7146 34.7952L64.3652 35.2061C64.182 35.4833 63.9587 35.6969 63.6953 35.847C63.4318 35.997 63.0752 36.072 62.6254 36.072C61.9121 36.072 61.3787 35.8616 61.0253 35.4409C60.6719 35.0203 60.4952 34.3827 60.4952 33.5283C60.4952 32.6348 60.6671 31.976 61.0109 31.5521C61.3546 31.1249 61.8735 30.9113 62.5675 30.9113C63.1908 30.9113 63.6583 31.0939 63.97 31.4591C64.2816 31.8211 64.4375 32.3804 64.4375 33.137V33.587H61.3097ZM63.6664 32.956C63.6599 32.519 63.57 32.1798 63.3965 31.9385C63.2198 31.6972 62.9338 31.5765 62.5386 31.5765C62.1627 31.5765 61.8816 31.6858 61.6952 31.9043C61.5056 32.1228 61.3803 32.4733 61.3193 32.956H63.6664ZM65.6953 31.0482H68.8762V31.7086H66.4905V35.9301H65.6953V31.0482ZM72.4618 35.9301V35.3186C72.2176 35.5371 71.9718 35.7181 71.7244 35.8616C71.477 36.0019 71.1975 36.072 70.8859 36.072C70.4264 36.072 70.073 35.9301 69.8256 35.6464C69.575 35.3627 69.4497 34.9991 69.4497 34.5556C69.4497 34.2229 69.5155 33.9457 69.6473 33.724C69.7758 33.5022 69.9637 33.3261 70.2111 33.1957C70.4553 33.0685 70.812 32.9772 71.281 32.9217L72.4618 32.8141V32.5744C72.4618 32.1994 72.359 31.9434 72.1534 31.8064C71.9477 31.6727 71.6634 31.6059 71.3003 31.6059C70.9758 31.6059 70.7252 31.6629 70.5485 31.7771C70.3718 31.8912 70.2465 32.0151 70.1726 32.1489L69.5268 31.7477C69.6714 31.4771 69.8947 31.27 70.1967 31.1265C70.4987 30.983 70.8714 30.9113 71.3148 30.9113C72.0056 30.9113 72.502 31.0384 72.804 31.2928C73.1028 31.5472 73.2522 31.9874 73.2522 32.6136V35.9301H72.4618ZM72.4618 33.4549L71.6907 33.5283C71.1702 33.5772 70.8023 33.6816 70.587 33.8414C70.375 33.9979 70.269 34.2311 70.269 34.5409C70.269 34.8311 70.3396 35.0398 70.481 35.167C70.6256 35.2942 70.8409 35.3578 71.1268 35.3578C71.2489 35.3578 71.3678 35.335 71.4835 35.2893C71.5991 35.2436 71.7132 35.1882 71.8256 35.123C71.9381 35.0578 72.0473 34.9811 72.1534 34.8931C72.2594 34.8083 72.3622 34.7268 72.4618 34.6485V33.4549ZM77.9174 31.6939H76.3752V35.9301H75.6089V31.6939H74.0667V31.0482H77.9174V31.6939ZM82.7561 33.5038C82.7561 34.3485 82.5762 34.9877 82.2163 35.4214C81.8597 35.8551 81.3376 36.072 80.65 36.072C79.9624 36.072 79.4371 35.8584 79.0741 35.4312C78.7078 35.0007 78.5246 34.3582 78.5246 33.5038C78.5246 32.6299 78.7078 31.9793 79.0741 31.5521C79.4403 31.1249 79.9657 30.9113 80.65 30.9113C81.3408 30.9113 81.8645 31.1281 82.2211 31.5619C82.5778 31.9988 82.7561 32.6462 82.7561 33.5038ZM81.9416 33.5038C81.9416 32.8386 81.834 32.3559 81.6187 32.0559C81.4034 31.7559 81.0805 31.6059 80.65 31.6059C80.2066 31.6059 79.8773 31.7559 79.662 32.0559C79.45 32.3592 79.3439 32.8418 79.3439 33.5038C79.3439 34.1398 79.4468 34.611 79.6524 34.9175C79.858 35.2241 80.1906 35.3773 80.65 35.3773C81.087 35.3773 81.4115 35.2257 81.6235 34.9224C81.8356 34.6159 81.9416 34.143 81.9416 33.5038ZM88.1394 33.4549C88.1394 34.2539 87.9675 34.8898 87.6237 35.3627C87.2799 35.8355 86.806 36.072 86.202 36.072C85.7233 36.072 85.2766 35.891 84.8622 35.529V37.7694H84.0718V31.0482H84.8622V31.5374C85.0421 31.3613 85.259 31.2129 85.5128 31.0923C85.7666 30.9716 86.0381 30.9113 86.3273 30.9113C86.8992 30.9113 87.3442 31.1298 87.6623 31.5667C87.9803 32.007 88.1394 32.6364 88.1394 33.4549ZM87.3201 33.4745C87.3201 32.2385 86.9394 31.6206 86.1779 31.6206C85.9273 31.6206 85.6863 31.6841 85.455 31.8113C85.2269 31.9385 85.0293 32.0853 84.8622 32.2516V34.8344C85.2702 35.1833 85.6831 35.3578 86.1008 35.3578C86.4574 35.3578 86.7498 35.2061 86.9779 34.9029C87.206 34.5996 87.3201 34.1235 87.3201 33.4745Z" fill="#BDCFDB"/>
</svg>
