<svg width="24" height="24" viewBox="0 0 24 24" fill="none" xmlns="http://www.w3.org/2000/svg">
<path fill-rule="evenodd" clip-rule="evenodd" d="M14.3819 13.6918H15.1498L20 18.5517L18.5517 20L13.6918 15.1498V14.3819L13.4294 14.1098C12.3213 15.0623 10.8828 15.6358 9.3179 15.6358C5.82847 15.6358 3 12.8073 3 9.3179C3 5.82847 5.82847 3 9.3179 3C12.8073 3 15.6358 5.82847 15.6358 9.3179C15.6358 10.8828 15.0623 12.3213 14.1098 13.4294L14.3819 13.6918ZM5 9.5C5 11.99 7.01 14 9.5 14C11.99 14 14 11.99 14 9.5C14 7.01 11.99 5 9.5 5C7.01 5 5 7.01 5 9.5Z" fill="#9CB6C9"/>
</svg>
