<svg width="99" height="25" viewBox="0 0 99 25" fill="none" xmlns="http://www.w3.org/2000/svg">
<path d="M2.31754 18.6674C3.24287 18.6674 3.86297 18.444 4.17784 17.9972C4.4895 17.5505 4.66942 16.8917 4.71762 16.021L5.41161 0.230713H26.6412V23.8966H20.3759V5.88059H11.2576L10.8094 16.7254C10.7387 17.9744 10.57 19.0701 10.3033 20.0126C10.0367 20.9518 9.61897 21.7394 9.05028 22.3753C8.48159 23.0112 7.7394 23.4955 6.8237 23.8281C5.9048 24.1575 4.77384 24.3222 3.43083 24.3222C2.89427 24.3222 2.35931 24.2977 1.82596 24.2488C1.29261 24.2031 0.817097 24.1086 0.399414 23.9651V18.5647C0.678941 18.6103 1.00505 18.6397 1.37776 18.6527C1.74725 18.6625 2.06051 18.6674 2.31754 18.6674ZM52.2564 6.23279V23.8966H46.69V13.0175L36.9114 23.8966H31.3401V6.23279H36.9114V17.1119L46.69 6.23279H52.2564ZM63.5339 24.601C62.2101 24.601 60.9523 24.5195 59.7602 24.3564C58.565 24.1901 57.3987 23.9667 56.2613 23.6862V18.4571C56.9328 18.6462 57.5706 18.8044 58.1747 18.9316C58.7787 19.062 59.3875 19.168 60.0012 19.2495C60.6149 19.3343 61.2414 19.3995 61.8808 19.4452C62.5202 19.4941 63.211 19.5185 63.9531 19.5185C64.9492 19.5185 65.7315 19.4827 66.3002 19.4109C66.8689 19.3392 67.2978 19.2511 67.587 19.1468C67.8794 19.0392 68.0593 18.9152 68.1268 18.775C68.1974 18.6348 68.2328 18.4815 68.2328 18.3152C68.2328 18.1489 68.2103 17.9956 68.1653 17.8554C68.1171 17.7152 67.9597 17.5912 67.693 17.4836C67.4263 17.3793 66.9974 17.2912 66.4062 17.2195C65.815 17.1477 64.9845 17.1119 63.9146 17.1119H60.0205V13.3012H63.9146C64.8431 13.3012 65.5628 13.2654 66.0737 13.1936C66.5845 13.1219 66.9621 13.0159 67.2063 12.8757C67.4504 12.7354 67.5902 12.5756 67.6255 12.3963C67.6577 12.2202 67.6737 12.0261 67.6737 11.8142C67.6737 11.6511 67.64 11.493 67.5725 11.3397C67.5018 11.1864 67.3396 11.056 67.0858 10.9484C66.8287 10.844 66.44 10.7625 65.9195 10.7038C65.3958 10.6451 64.6825 10.6157 63.7796 10.6157C62.4109 10.6157 61.198 10.6972 60.141 10.8603C59.0839 11.0266 57.9883 11.25 56.8541 11.5305V6.44802C57.8726 6.16431 58.9458 5.93929 60.0735 5.77297C61.198 5.60991 62.3161 5.52839 63.4278 5.52839H64.0929C65.9018 5.52839 67.3974 5.64579 68.5798 5.88059C69.7622 6.11539 70.7084 6.43987 71.4184 6.85403C72.1253 7.26493 72.6185 7.74757 72.898 8.30196C73.1743 8.85309 73.3125 9.4352 73.3125 10.0483V10.6157C73.3125 11.6267 72.9944 12.5153 72.3582 13.2817C71.7188 14.048 70.5525 14.6301 68.8593 15.028C69.8103 15.2171 70.6104 15.4536 71.2594 15.7373C71.9084 16.021 72.4257 16.339 72.8112 16.6912C73.1936 17.0434 73.4651 17.4314 73.6257 17.8554C73.7896 18.2793 73.8715 18.7147 73.8715 19.1615V19.7289C73.8715 20.4105 73.7205 21.0464 73.4185 21.6366C73.1165 22.2236 72.5944 22.7356 71.8522 23.1726C71.11 23.6096 70.1124 23.9569 68.8593 24.2145C67.6063 24.4722 66.0175 24.601 64.0929 24.601H63.5339ZM99 23.8966H97.6072L95.7276 22.8009C94.5452 23.4139 93.3147 23.8672 92.0359 24.1607C90.7604 24.4542 89.3226 24.601 87.7225 24.601C85.843 24.601 84.2831 24.4428 83.0429 24.1265C81.7995 23.8069 80.8067 23.3715 80.0645 22.8204C79.3223 22.266 78.8002 21.6301 78.4982 20.9127C78.1961 20.1952 78.0451 19.4468 78.0451 18.6674V18.3152C78.0451 17.5847 78.2026 16.8901 78.5174 16.2313C78.8291 15.5726 79.3624 14.9954 80.1175 14.4997C80.8725 14.004 81.8589 13.6159 83.0766 13.3355C84.2943 13.0518 85.8076 12.9099 87.6165 12.9099C89.8913 12.9099 91.8287 13.1333 93.4287 13.5801C93.4062 13.1105 93.3436 12.693 93.2408 12.3278C93.1348 11.9626 92.9082 11.656 92.5612 11.4082C92.211 11.1603 91.6937 10.9728 91.0094 10.8456C90.325 10.7152 89.4158 10.65 88.2816 10.65C87.6551 10.65 86.982 10.6728 86.2623 10.7184C85.5426 10.7674 84.8164 10.8326 84.0839 10.9141C83.3545 10.9956 82.6364 11.1081 81.9296 11.2516C81.2195 11.3919 80.5641 11.5451 79.9633 11.7114V6.40889C80.5641 6.26866 81.2195 6.14637 81.9296 6.04201C82.6364 5.9344 83.3674 5.83982 84.1224 5.7583C84.8743 5.67677 85.6164 5.61807 86.349 5.58219C87.0783 5.54632 87.7804 5.52839 88.4551 5.52839C90.4021 5.52839 92.0424 5.6996 93.3757 6.04201C94.7123 6.38117 95.7983 6.87523 96.6337 7.52419C97.469 8.16989 98.0714 8.97701 98.4409 9.94556C98.8136 10.9108 99 12.0294 99 13.3012V23.8966ZM88.3153 20.1887C90.1467 20.1887 91.8512 19.9409 93.4287 19.4452V17.7869C92.6416 17.5749 91.8062 17.4151 90.9226 17.3075C90.0423 17.2032 89.0575 17.151 87.9683 17.151C86.9241 17.151 86.1112 17.1983 85.5297 17.2928C84.9482 17.3842 84.5192 17.5064 84.2429 17.6597C83.9634 17.813 83.7883 17.9842 83.7176 18.1733C83.6501 18.3625 83.6164 18.5386 83.6164 18.7016C83.6164 18.9136 83.6501 19.1093 83.7176 19.2886C83.7883 19.4647 83.9811 19.6229 84.2959 19.7631C84.6076 19.9034 85.0767 20.0093 85.7032 20.0811C86.3297 20.1528 87.2004 20.1887 88.3153 20.1887Z" fill="#BDCFDB"/>
</svg>
