<svg width="30" height="30" viewBox="0 0 30 30" fill="none" xmlns="http://www.w3.org/2000/svg">
<g filter="url(#filter0_ddd)">
<path d="M23 4H7C5.9 4 5 4.9 5 6V24L9 20H23C24.1 20 25 19.1 25 18V6C25 4.9 24.1 4 23 4Z" fill="#9CB6C9"/>
<path d="M16.7285 7.38086V8.77539H16.5645C15.7988 8.78711 15.1816 8.98633 14.7129 9.37305C14.248 9.75977 13.9688 10.2969 13.875 10.9844C14.3281 10.5234 14.9004 10.293 15.5918 10.293C16.334 10.293 16.9238 10.5586 17.3613 11.0898C17.7988 11.6211 18.0176 12.3203 18.0176 13.1875C18.0176 13.7422 17.8965 14.2441 17.6543 14.6934C17.416 15.1426 17.0762 15.4922 16.6348 15.7422C16.1973 15.9922 15.7012 16.1172 15.1465 16.1172C14.248 16.1172 13.5215 15.8047 12.9668 15.1797C12.416 14.5547 12.1406 13.7207 12.1406 12.6777V12.0684C12.1406 11.1426 12.3145 10.3262 12.6621 9.61914C13.0137 8.9082 13.5156 8.35938 14.168 7.97266C14.8242 7.58203 15.584 7.38477 16.4473 7.38086H16.7285ZM15.0762 11.6523C14.8027 11.6523 14.5547 11.7246 14.332 11.8691C14.1094 12.0098 13.9453 12.1973 13.8398 12.4316V12.9473C13.8398 13.5137 13.9512 13.957 14.1738 14.2773C14.3965 14.5938 14.709 14.752 15.1113 14.752C15.4746 14.752 15.7676 14.6094 15.9902 14.3242C16.2168 14.0352 16.3301 13.6621 16.3301 13.2051C16.3301 12.7402 16.2168 12.3652 15.9902 12.0801C15.7637 11.7949 15.459 11.6523 15.0762 11.6523Z" fill="#121B21"/>
</g>
<defs>
<filter id="filter0_ddd" x="0" y="0" width="30" height="30" filterUnits="userSpaceOnUse" color-interpolation-filters="sRGB">
<feFlood flood-opacity="0" result="BackgroundImageFix"/>
<feColorMatrix in="SourceAlpha" type="matrix" values="0 0 0 0 0 0 0 0 0 0 0 0 0 0 0 0 0 0 127 0"/>
<feOffset dy="1"/>
<feGaussianBlur stdDeviation="1.5"/>
<feColorMatrix type="matrix" values="0 0 0 0 0 0 0 0 0 0 0 0 0 0 0 0 0 0 0.2 0"/>
<feBlend mode="normal" in2="BackgroundImageFix" result="effect1_dropShadow"/>
<feColorMatrix in="SourceAlpha" type="matrix" values="0 0 0 0 0 0 0 0 0 0 0 0 0 0 0 0 0 0 127 0"/>
<feOffset dy="2"/>
<feGaussianBlur stdDeviation="1"/>
<feColorMatrix type="matrix" values="0 0 0 0 0 0 0 0 0 0 0 0 0 0 0 0 0 0 0.12 0"/>
<feBlend mode="normal" in2="effect1_dropShadow" result="effect2_dropShadow"/>
<feColorMatrix in="SourceAlpha" type="matrix" values="0 0 0 0 0 0 0 0 0 0 0 0 0 0 0 0 0 0 127 0"/>
<feOffset/>
<feGaussianBlur stdDeviation="1"/>
<feColorMatrix type="matrix" values="0 0 0 0 0 0 0 0 0 0 0 0 0 0 0 0 0 0 0.14 0"/>
<feBlend mode="normal" in2="effect2_dropShadow" result="effect3_dropShadow"/>
<feBlend mode="normal" in="SourceGraphic" in2="effect3_dropShadow" result="shape"/>
</filter>
</defs>
</svg>
