<svg width="78" height="9" viewBox="0 0 78 9" fill="none" xmlns="http://www.w3.org/2000/svg">
<path d="M2.8478 1.2411V1.63243C2.8478 3.26951 2.66948 4.57396 2.31284 5.54577C1.95942 6.51758 1.46302 7.00348 0.823638 7.00348C0.624435 7.00348 0.436478 6.97251 0.259766 6.91054L0.413987 6.22082C0.481459 6.25017 0.548931 6.26484 0.616403 6.26484C1.08228 6.26484 1.42928 5.83437 1.6574 4.97344C1.88552 4.11251 1.99958 2.88797 1.99958 1.2998V0.492676H5.4792V6.93011H4.6358V1.2411H2.8478ZM7.92747 6.93011H7.09371V2.04823H7.8359V5.90286L10.1926 2.04823H10.9926V6.93011H10.2456V3.15863L7.92747 6.93011ZM12.8867 4.05381H13.8939C14.2506 4.05381 14.5124 4.00326 14.6795 3.90217C14.8466 3.80107 14.9301 3.63475 14.9301 3.40321C14.9301 2.87165 14.5429 2.60588 13.7686 2.60588C13.5051 2.60588 13.2947 2.65805 13.1373 2.76241C12.9766 2.86676 12.8369 3.01352 12.718 3.20266L12.0722 2.80154C12.4095 2.20802 12.9718 1.91126 13.759 1.91126C14.4048 1.91126 14.8899 2.04334 15.2144 2.30749C15.5389 2.57164 15.7012 2.92709 15.7012 3.37387C15.7012 3.66737 15.6273 3.90543 15.4795 4.08805C15.3285 4.27394 15.1518 4.39949 14.9494 4.46471C15.1389 4.5332 15.3108 4.66201 15.465 4.85115C15.6161 5.04356 15.6916 5.30445 15.6916 5.63382C15.6916 6.59259 15.0377 7.07196 13.7301 7.07196C13.261 7.07196 12.8931 6.98881 12.6264 6.82249C12.3597 6.65291 12.1525 6.43768 12.0047 6.1768L12.6553 5.77567C12.7967 5.98112 12.9493 6.13277 13.1132 6.2306C13.2738 6.32844 13.4827 6.37735 13.7397 6.37735C14.0867 6.37735 14.371 6.30887 14.5927 6.1719C14.8144 6.03493 14.9253 5.82785 14.9253 5.55065C14.9253 4.98974 14.5959 4.7093 13.9373 4.7093H12.8867V4.05381ZM17.788 6.93011H16.9542V2.04823H17.6964V5.90286L20.0531 2.04823H20.8483V6.93011H20.1062V3.15863L17.788 6.93011ZM26.2847 6.93011H25.5135V4.73864H23.1761V6.93011H22.4098V2.04823H23.1761V4.09294H25.5135V2.04823H26.2847V6.93011ZM27.8413 2.04823H31.0221V2.7086H28.6413V6.93011H27.8413V2.04823ZM33.8704 6.93011L36.0392 0.492676H37.138L39.3067 6.93011H38.4151L37.8609 5.25716H35.2777L34.7379 6.93011H33.8704ZM35.5331 4.47449H37.5958L36.5645 1.33894L35.5331 4.47449ZM40.3188 2.04823H43.4996V2.7086H41.1188V6.93011H40.3188V2.04823ZM48.4251 4.45493C48.4251 5.2539 48.2532 5.88981 47.9094 6.36267C47.5656 6.83553 47.0917 7.07196 46.4877 7.07196C46.0089 7.07196 45.5623 6.89097 45.1479 6.52899V8.76937H44.3575V2.04823H45.1479V2.5374C45.3278 2.3613 45.5447 2.21291 45.7985 2.09225C46.0523 1.97159 46.3238 1.91126 46.613 1.91126C47.1849 1.91126 47.6299 2.12976 47.948 2.56674C48.266 3.00699 48.4251 3.63639 48.4251 4.45493ZM47.6058 4.47449C47.6058 3.23853 47.225 2.62055 46.4636 2.62055C46.213 2.62055 45.972 2.68414 45.7407 2.81133C45.5125 2.93851 45.3149 3.08526 45.1479 3.25157V5.83437C45.5559 6.18331 45.9672 6.35778 46.3816 6.35778C46.7415 6.35778 47.0355 6.20614 47.2636 5.90286C47.4917 5.59957 47.6058 5.12345 47.6058 4.47449ZM50.3095 4.587C50.3095 5.22944 50.4187 5.68926 50.6372 5.96645C50.8525 6.24038 51.2011 6.37735 51.683 6.37735C51.8951 6.37735 52.083 6.33169 52.2469 6.24038C52.4075 6.14907 52.5634 6.00069 52.7144 5.79524L53.365 6.20614C53.1819 6.48334 52.9585 6.69694 52.6951 6.84695C52.4316 6.99696 52.075 7.07196 51.6252 7.07196C50.9119 7.07196 50.3786 6.86162 50.0251 6.44094C49.6717 6.02026 49.495 5.38271 49.495 4.5283C49.495 3.63475 49.6669 2.97601 50.0107 2.55207C50.3545 2.12486 50.8733 1.91126 51.5673 1.91126C52.1907 1.91126 52.6581 2.09388 52.9698 2.45913C53.2815 2.82111 53.4373 3.38039 53.4373 4.13696V4.587H50.3095ZM52.6662 3.95598C52.6597 3.51899 52.5698 3.17983 52.3963 2.93851C52.2196 2.69719 51.9336 2.57653 51.5384 2.57653C51.1625 2.57653 50.8814 2.68578 50.695 2.90427C50.5055 3.12276 50.3802 3.47333 50.3191 3.95598H52.6662ZM54.6951 2.04823H57.876V2.7086H55.4904V6.93011H54.6951V2.04823ZM61.4616 6.93011V6.31865C61.2174 6.53714 60.9716 6.71814 60.7243 6.86162C60.4769 7.00185 60.1973 7.07196 59.8857 7.07196C59.4262 7.07196 59.0728 6.93011 58.8254 6.64639C58.5748 6.36267 58.4495 5.99906 58.4495 5.55555C58.4495 5.22292 58.5153 4.94573 58.6471 4.72397C58.7756 4.50221 58.9636 4.32611 59.2109 4.19567C59.4551 4.06849 59.8118 3.97718 60.2809 3.92174L61.4616 3.81412V3.57443C61.4616 3.1994 61.3588 2.9434 61.1532 2.80644C60.9475 2.67273 60.6632 2.60588 60.3001 2.60588C59.9756 2.60588 59.725 2.66294 59.5483 2.77708C59.3716 2.89122 59.2463 3.01515 59.1724 3.14885L58.5266 2.74773C58.6712 2.47706 58.8945 2.26998 59.1965 2.12649C59.4985 1.983 59.8712 1.91126 60.3146 1.91126C61.0054 1.91126 61.5018 2.03845 61.8038 2.29281C62.1026 2.54718 62.252 2.98743 62.252 3.61356V6.93011H61.4616ZM61.4616 4.45493L60.6905 4.5283C60.17 4.57722 59.8021 4.68157 59.5869 4.84137C59.3748 4.9979 59.2688 5.23107 59.2688 5.54088C59.2688 5.83112 59.3395 6.03983 59.4808 6.16701C59.6254 6.29419 59.8407 6.35778 60.1266 6.35778C60.2487 6.35778 60.3676 6.33496 60.4833 6.2893C60.5989 6.24365 60.713 6.18821 60.8255 6.12299C60.9379 6.05776 61.0471 5.98113 61.1532 5.89308C61.2592 5.80829 61.362 5.72676 61.4616 5.64849V4.45493ZM66.9172 2.69392H65.375V6.93011H64.6087V2.69392H63.0665V2.04823H66.9172V2.69392ZM71.7559 4.50384C71.7559 5.34847 71.576 5.98765 71.2161 6.42138C70.8595 6.85511 70.3374 7.07196 69.6498 7.07196C68.9623 7.07196 68.4369 6.85836 68.0739 6.43116C67.7076 6.00069 67.5245 5.35825 67.5245 4.50384C67.5245 3.62986 67.7076 2.97928 68.0739 2.55207C68.4401 2.12486 68.9655 1.91126 69.6498 1.91126C70.3406 1.91126 70.8643 2.12813 71.221 2.56186C71.5776 2.99884 71.7559 3.64617 71.7559 4.50384ZM70.9414 4.50384C70.9414 3.83857 70.8338 3.35593 70.6185 3.05591C70.4033 2.75589 70.0804 2.60588 69.6498 2.60588C69.2064 2.60588 68.8771 2.75589 68.6618 3.05591C68.4498 3.35919 68.3438 3.84183 68.3438 4.50384C68.3438 5.13976 68.4466 5.61099 68.6522 5.91753C68.8578 6.22407 69.1904 6.37735 69.6498 6.37735C70.0868 6.37735 70.4113 6.22571 70.6233 5.92243C70.8354 5.61588 70.9414 5.14302 70.9414 4.50384ZM77.1392 4.45493C77.1392 5.2539 76.9673 5.88981 76.6235 6.36267C76.2797 6.83553 75.8058 7.07196 75.2018 7.07196C74.7231 7.07196 74.2765 6.89097 73.862 6.52899V8.76937H73.0716V2.04823H73.862V2.5374C74.0419 2.3613 74.2588 2.21291 74.5126 2.09225C74.7664 1.97159 75.0379 1.91126 75.3271 1.91126C75.899 1.91126 76.344 2.12976 76.6621 2.56674C76.9802 3.00699 77.1392 3.63639 77.1392 4.45493ZM76.3199 4.47449C76.3199 3.23853 75.9392 2.62055 75.1777 2.62055C74.9271 2.62055 74.6861 2.68414 74.4548 2.81133C74.2267 2.93851 74.0291 3.08526 73.862 3.25157V5.83437C74.27 6.18331 74.6829 6.35778 75.1006 6.35778C75.4572 6.35778 75.7496 6.20614 75.9777 5.90286C76.2058 5.59957 76.3199 5.12345 76.3199 4.47449Z" fill="#BDCFDB"/>
</svg>
